HIERARCHY
ROOT Hips
{
	OFFSET 0.00000 0.00000 0.00000
	CHANNELS 6 Xposition Yposition Zposition Zrotation Yrotation Xrotation 
	JOINT LHipJoint
	{
		OFFSET 0 0 0
		CHANNELS 3 Zrotation Yrotation Xrotation
		JOINT LeftUpLeg
		{
			OFFSET 1.42489 -1.84941 0.69647
			CHANNELS 3 Zrotation Yrotation Xrotation
			JOINT LeftLeg
			{
				OFFSET 2.44443 -6.71602 0.00000
				CHANNELS 3 Zrotation Yrotation Xrotation
				JOINT LeftFoot
				{
					OFFSET 2.62838 -7.22137 0.00000
					CHANNELS 3 Zrotation Yrotation Xrotation
					JOINT LeftToeBase
					{
						OFFSET 0.24036 -0.66037 2.29953
						CHANNELS 3 Zrotation Yrotation Xrotation
						End Site
						{
							OFFSET 0.00000 -0.00000 1.19837
						}
					}
				}
			}
		}
	}
	JOINT RHipJoint
	{
		OFFSET 0 0 0
		CHANNELS 3 Zrotation Yrotation Xrotation
		JOINT RightUpLeg
		{
			OFFSET -1.37055 -1.84941 0.69647
			CHANNELS 3 Zrotation Yrotation Xrotation
			JOINT RightLeg
			{
				OFFSET -2.54834 -7.00152 0.00000
				CHANNELS 3 Zrotation Yrotation Xrotation
				JOINT RightFoot
				{
					OFFSET -2.65692 -7.29983 0.00000
					CHANNELS 3 Zrotation Yrotation Xrotation
					JOINT RightToeBase
					{
						OFFSET -0.18839 -0.51760 2.29390
						CHANNELS 3 Zrotation Yrotation Xrotation
						End Site
						{
							OFFSET -0.00000 -0.00000 1.18261
						}
					}
				}
			}
		}
	}
	JOINT LowerBack
	{
		OFFSET 0 0 0
		CHANNELS 3 Zrotation Yrotation Xrotation
		JOINT Spine
		{
			OFFSET 0.05220 2.15489 0.05011
			CHANNELS 3 Zrotation Yrotation Xrotation
			JOINT Spine1
			{
				OFFSET -0.07653 2.14219 -0.05668
				CHANNELS 3 Zrotation Yrotation Xrotation
				JOINT Neck
				{
					OFFSET 0 0 0
					CHANNELS 3 Zrotation Yrotation Xrotation
					JOINT Neck1
					{
						OFFSET 0.01370 1.58638 0.01447
						CHANNELS 3 Zrotation Yrotation Xrotation
						JOINT Head
						{
							OFFSET 0.23548 1.54190 -0.21747
							CHANNELS 3 Zrotation Yrotation Xrotation
							End Site
							{
								OFFSET 0.07132 1.59823 -0.08163
							}
						}
					}
				}
				JOINT LeftShoulder
				{
					OFFSET 0 0 0
					CHANNELS 3 Zrotation Yrotation Xrotation
					JOINT LeftArm
					{
						OFFSET 3.47056 1.45357 -0.58896
						CHANNELS 3 Zrotation Yrotation Xrotation
						JOINT LeftForeArm
						{
							OFFSET 5.19069 -0.00000 0.00000
							CHANNELS 3 Zrotation Yrotation Xrotation
							JOINT LeftHand
							{
								OFFSET 3.30016 -0.00000 0.00000
								CHANNELS 3 Zrotation Yrotation Xrotation
								JOINT LeftFingerBase
								{
									OFFSET 0 0 0
									CHANNELS 3 Zrotation Yrotation Xrotation
									JOINT LeftHandIndex1
									{
										OFFSET 0.70770 -0.00000 0.00000
										CHANNELS 3 Zrotation Yrotation Xrotation
										End Site
										{
											OFFSET 0.57056 -0.00000 0.00000
										}
									}
								}
								JOINT LThumb
								{
									OFFSET 0 0 0
									CHANNELS 3 Zrotation Yrotation Xrotation
									End Site
									{
										OFFSET 0.57928 -0.00000 0.57928
									}
								}
							}
						}
					}
				}
				JOINT RightShoulder
				{
					OFFSET 0 0 0
					CHANNELS 3 Zrotation Yrotation Xrotation
					JOINT RightArm
					{
						OFFSET -2.89018 2.03305 -0.26731
						CHANNELS 3 Zrotation Yrotation Xrotation
						JOINT RightForeArm
						{
							OFFSET -5.23924 -0.00000 0.00000
							CHANNELS 3 Zrotation Yrotation Xrotation
							JOINT RightHand
							{
								OFFSET -3.32953 -0.00000 0.00000
								CHANNELS 3 Zrotation Yrotation Xrotation
								JOINT RightFingerBase
								{
									OFFSET 0 0 0
									CHANNELS 3 Zrotation Yrotation Xrotation
									JOINT RightHandIndex1
									{
										OFFSET -0.60741 -0.00000 0.00000
										CHANNELS 3 Zrotation Yrotation Xrotation
										End Site
										{
											OFFSET -0.48971 -0.00000 0.00000
										}
									}
								}
								JOINT RThumb
								{
									OFFSET 0 0 0
									CHANNELS 3 Zrotation Yrotation Xrotation
									End Site
									{
										OFFSET -0.49719 -0.00000 0.49719
									}
								}
							}
						}
					}
				}
			}
		}
	}
}
MOTION
Frames: 16
Frame Time: .0083333
4.3578 17.1813 2.0376 0 0 0 0 0 0 -21 0 0 0 0 0 0 0 0 0 0 0 0 0 0 21 0 0 0 0 0 0 0 0 0 0 0 0 0 0 0 0 0 0 0 0 0 0 -16 0 0 21 0 0 11 0 0 0 -8 0 0 0 0 0 0 0 0 0 0 0 0 0 0 0 0 0 0 0 0 8 0 0 0 0 0 0 0 0 0 0 0 0 0 0 0 0 0
4.3578 17.1813 2.0376 -10.6683 -4.6817 1.5910 0.0000 0.0000 0.0000 -6.9178 1.9680 -10.4636 3.8393 11.9434 35.5320 2.3559 4.5703 -30.8979 0.2114 -2.9604 -8.1685 0.0000 0.0000 0.0000 28.5112 10.3414 -16.5851 -3.8485 -11.9560 35.5766 -0.9194 3.3977 -17.2960 -0.0143 0.7715 -2.1204 9.8471 -2.8390 0.0634 0.8730 -4.1163 5.0943 -4.7265 -1.6590 4.6958 -13.5794 -14.2790 0.7701 23.6047 -20.2591 0.5176 8.2046 -10.0840 3.9722 -0.0000 0.0000 0.0000 -82.4763 -6.4991 17.7177 9.7313 -16.3182 -1.3985 -0.0000 0.0000 -0.4942 9.5714 -4.4533 -0.7501 -7.1250 0.0000 -0.0000 -12.7913 25.4391 6.2041 -0.0000 0.0000 0.0000 87.9813 2.5335 24.2504 -14.1000 22.8774 -2.8669 0.0000 0.0000 2.6636 -11.3840 -6.7002 1.3457 7.1250 -0.0000 -0.0000 12.9281 -36.5407 2.7462
4.3238 17.1808 2.0559 -10.7291 -4.4859 1.5581 0.0000 0.0000 0.0000 -6.6986 1.9388 -10.4232 3.8453 11.9516 35.5610 2.3480 4.4836 -30.8087 0.2228 -3.0387 -8.3865 0.0000 0.0000 0.0000 28.7100 10.2029 -16.4880 -3.8391 -11.9432 35.5314 -0.9284 3.4085 -17.3814 -0.0102 0.6512 -1.7896 9.9967 -2.8463 0.0647 0.9018 -4.1312 5.1000 -4.7792 -1.6606 4.6934 -13.5119 -14.3059 0.7216 23.6220 -20.2824 0.4601 8.1940 -10.0941 3.9632 -0.0000 0.0000 0.0000 -82.4727 -6.4392 17.8544 9.8301 -16.4733 -1.4264 -0.0000 0.0000 -0.6464 9.5087 -4.3344 -0.7253 -7.1250 0.0000 -0.0000 -12.8494 25.5571 6.1973 -0.0000 0.0000 0.0000 87.9971 2.6200 24.4190 -14.2184 23.0461 -2.9131 0.0000 0.0000 2.5510 -11.4706 -6.7104 1.3583 7.1250 -0.0000 -0.0000 12.8584 -36.5560 2.7259
4.2904 17.1807 2.0751 -10.7693 -4.2933 1.5157 0.0000 0.0000 0.0000 -6.5034 1.9559 -10.3865 3.8554 11.9654 35.6098 2.3409 4.3788 -30.7165 0.2398 -3.1516 -8.7010 0.0000 0.0000 0.0000 28.8846 10.0496 -16.3841 -3.8312 -11.9323 35.4931 -0.9394 3.4215 -17.4867 -0.0078 0.5718 -1.5712 10.1088 -2.8454 0.0307 0.9556 -4.1386 5.0891 -4.7866 -1.6607 4.6983 -13.5327 -14.3017 0.8491 23.6519 -20.2663 0.3361 8.2216 -10.0991 3.9082 -0.0000 -0.0000 0.0000 -82.5392 -6.3805 17.9120 9.8635 -16.5258 -1.4359 -0.0000 0.0000 -0.6589 9.5075 -4.4195 -0.7394 -7.1250 0.0000 -0.0000 -12.8420 25.4730 6.2195 -0.0000 -0.0000 0.0000 87.9523 2.6814 24.5257 -14.3151 23.1834 -2.9510 0.0000 0.0000 2.4971 -11.4913 -6.6943 1.3576 7.1250 -0.0000 -0.0000 12.8383 -36.5412 2.7262
4.2572 17.1804 2.0928 -10.8291 -4.0902 1.4916 0.0000 0.0000 0.0000 -6.2872 1.9304 -10.3747 3.8664 11.9805 35.6629 2.3304 4.3006 -30.6162 0.2566 -3.2593 -9.0015 0.0000 0.0000 0.0000 29.0821 9.9432 -16.2924 -3.8239 -11.9223 35.4578 -0.9518 3.3671 -17.6136 -0.0084 0.5904 -1.6223 10.2480 -2.8558 0.0074 1.0025 -4.1611 5.0896 -4.8160 -1.6666 4.7053 -13.4622 -14.3210 0.7949 23.6109 -20.2770 0.3037 8.1934 -10.1016 3.8975 0.0000 0.0000 0.0000 -82.5707 -6.3451 17.9916 9.9198 -16.6141 -1.4519 -0.0000 0.0000 -0.7711 9.5827 -4.5256 -0.7632 -7.1250 0.0000 -0.0000 -12.7760 25.3674 6.2182 0.0000 0.0000 0.0000 87.9326 2.7954 24.6224 -14.4242 23.3379 -2.9941 0.0000 0.0000 2.5713 -11.3973 -6.8777 1.3829 7.1250 -0.0000 -0.0000 12.9507 -36.7177 2.6938
4.2269 17.1805 2.1071 -10.8442 -3.9085 1.4926 0.0000 0.0000 0.0000 -6.1211 1.9677 -10.4385 3.8792 11.9978 35.7243 2.3174 4.1511 -30.4678 0.2691 -3.3372 -9.2190 0.0000 0.0000 0.0000 29.2115 9.8105 -16.2647 -3.8186 -11.9151 35.4322 -0.9593 3.4050 -17.6799 -0.0042 0.4189 -1.1511 10.3597 -2.8787 0.0092 1.0299 -4.1935 5.0647 -4.8484 -1.6812 4.6688 -13.4579 -14.3221 0.8260 23.6117 -20.2713 0.2549 8.1974 -10.1025 3.8766 0.0000 -0.0000 0.0000 -82.6181 -6.2740 17.8594 10.0184 -16.7684 -1.4803 -0.0000 0.0000 -0.8007 9.5855 -4.4390 -0.7489 -7.1250 0.0000 -0.0000 -12.7824 25.4530 6.1953 0.0000 -0.0000 0.0000 87.9009 2.8662 24.9734 -14.5327 23.4911 -3.0372 0.0000 0.0000 2.2828 -11.5210 -6.8871 1.4002 7.1250 -0.0000 -0.0000 12.8502 -36.7345 2.6667
4.1952 17.1802 2.1232 -10.8723 -3.7205 1.4774 0.0000 0.0000 0.0000 -5.9403 1.9765 -10.4658 3.8933 12.0170 35.7923 2.3077 4.0292 -30.3526 0.2840 -3.4273 -9.4709 0.0000 0.0000 0.0000 29.3634 9.6853 -16.2103 -3.8142 -11.9090 35.4109 -0.9694 3.4146 -17.7748 -0.0025 0.3212 -0.8825 10.4764 -2.8904 -0.0037 1.0644 -4.2141 5.0516 -4.8772 -1.6884 4.6555 -13.4390 -14.3303 0.8481 23.6123 -20.2723 0.1945 8.1978 -10.1065 3.8536 0.0000 0.0000 0.0000 -82.6580 -6.2211 17.8480 10.0923 -16.8839 -1.5017 -0.0000 0.0000 -0.8694 9.6022 -4.4395 -0.7503 -7.1250 0.0000 -0.0000 -12.7699 25.4524 6.1891 0.0000 0.0000 0.0000 87.8726 2.9503 25.1874 -14.6383 23.6399 -3.0794 0.0000 0.0000 2.1645 -11.5540 -6.9314 1.4133 7.1250 -0.0000 -0.0000 12.8313 -36.7806 2.6478
4.1639 17.1798 2.1387 -10.8906 -3.5357 1.4664 0.0000 0.0000 0.0000 -5.7705 1.9935 -10.5057 3.9080 12.0369 35.8627 2.2975 3.8987 -30.2303 0.2989 -3.5155 -9.7173 0.0000 0.0000 0.0000 29.5015 9.5627 -16.1687 -3.8117 -11.9055 35.3985 -0.9797 3.4298 -17.8704 -0.0012 0.2205 -0.6057 10.5859 -2.9012 -0.0169 1.0958 -4.2332 5.0363 -4.9051 -1.6952 4.6404 -13.4266 -14.3381 0.8769 23.6153 -20.2735 0.1339 8.2004 -10.1110 3.8304 0.0000 -0.0000 0.0000 -82.6983 -6.1726 17.8227 10.1649 -16.9972 -1.5228 -0.0000 0.0000 -0.9365 9.6210 -4.4449 -0.7527 -7.1250 0.0000 -0.0000 -12.7554 25.4469 6.1834 0.0000 -0.0000 0.0000 87.8412 3.0344 25.4115 -14.7421 23.7856 -3.1212 0.0000 0.0000 2.0399 -11.5864 -6.9648 1.4241 7.1250 -0.0000 -0.0000 12.8109 -36.8157 2.6322
4.1330 17.1794 2.1537 -10.8991 -3.3546 1.4596 0.0000 0.0000 0.0000 -5.6115 2.0183 -10.5572 3.9227 12.0568 35.9333 2.2866 3.7604 -30.1006 0.3137 -3.6003 -9.9547 0.0000 0.0000 0.0000 29.6263 9.4422 -16.1379 -3.8098 -11.9029 35.3895 -0.9899 3.4498 -17.9635 -0.0003 0.1170 -0.3215 10.6885 -2.9107 -0.0294 1.1228 -4.2498 5.0198 -4.9337 -1.7011 4.6240 -13.4178 -14.3471 0.9068 23.6210 -20.2772 0.0749 8.2041 -10.1168 3.8087 -0.0000 -0.0000 0.0000 -82.7357 -6.1303 17.7912 10.2375 -17.1102 -1.5441 -0.0000 0.0000 -1.0081 9.6375 -4.4501 -0.7549 -7.1250 0.0000 -0.0000 -12.7427 25.4416 6.1786 -0.0000 -0.0000 0.0000 87.8092 3.1190 25.6443 -14.8445 23.9290 -3.1626 0.0000 0.0000 1.9104 -11.6204 -6.9841 1.4324 7.1250 -0.0000 -0.0000 12.7863 -36.8370 2.6201
4.1025 17.1790 2.1682 -10.8969 -3.1776 1.4566 0.0000 0.0000 0.0000 -5.4642 2.0523 -10.6206 3.9381 12.0775 36.0067 2.2753 3.6131 -29.9648 0.3283 -3.6826 -10.1853 0.0000 0.0000 0.0000 29.7365 9.3219 -16.1186 -3.8091 -11.9020 35.3862 -1.0001 3.4767 -18.0552 -0.0000 0.0112 -0.0306 10.7825 -2.9176 -0.0426 1.1459 -4.2627 5.0021 -4.9616 -1.7055 4.6073 -13.4155 -14.3570 0.9446 23.6318 -20.2828 0.0138 8.2106 -10.1241 3.7867 -0.0000 0.0000 0.0000 -82.7706 -6.0955 17.7566 10.3070 -17.2183 -1.5646 -0.0000 0.0000 -1.0797 9.6489 -4.4602 -0.7575 -7.1250 0.0000 -0.0000 -12.7333 25.4315 6.1769 -0.0000 0.0000 0.0000 87.7753 3.2022 25.8827 -14.9448 24.0692 -3.2034 0.0000 0.0000 1.7757 -11.6591 -6.9814 1.4367 7.1250 -0.0000 -0.0000 12.7537 -36.8365 2.6133
4.0723 17.1785 2.1822 -10.8854 -3.0042 1.4571 0.0000 0.0000 0.0000 -5.3270 2.0942 -10.6945 3.9539 12.0988 36.0824 2.2635 3.4591 -29.8233 0.3431 -3.7638 -10.4132 0.0000 0.0000 0.0000 29.8344 9.2034 -16.1089 -3.8094 -11.9023 35.3874 -1.0104 3.5052 -18.1476 -0.0002 -0.0873 0.2399 10.8688 -2.9213 -0.0576 1.1655 -4.2711 4.9841 -4.9890 -1.7078 4.5923 -13.4165 -14.3690 0.9852 23.6450 -20.2920 -0.0471 8.2182 -10.1334 3.7656 0.0000 -0.0000 0.0000 -82.8018 -6.0714 17.7278 10.3711 -17.3180 -1.5836 -0.0000 0.0000 -1.1538 9.6583 -4.4853 -0.7625 -7.1250 0.0000 -0.0000 -12.7239 25.4066 6.1797 0.0000 -0.0000 0.0000 87.7402 3.2862 26.1169 -15.0427 24.2056 -3.2434 0.0000 0.0000 1.6511 -11.6925 -6.9666 1.4379 7.1250 -0.0000 -0.0000 12.7233 -36.8240 2.6108
4.0424 17.1782 2.1957 -10.8654 -2.8345 1.4620 0.0000 0.0000 0.0000 -5.1992 2.1437 -10.7802 3.9703 12.1207 36.1604 2.2509 3.2991 -29.6750 0.3579 -3.8436 -10.6371 0.0000 0.0000 0.0000 29.9204 9.0860 -16.1094 -3.8103 -11.9036 35.3917 -1.0207 3.5346 -18.2387 -0.0008 -0.1797 0.4938 10.9478 -2.9221 -0.0740 1.1818 -4.2756 4.9657 -5.0158 -1.7084 4.5784 -13.4202 -14.3832 1.0272 23.6592 -20.3048 -0.1063 8.2260 -10.1444 3.7458 0.0000 -0.0000 0.0000 -82.8289 -6.0577 17.7013 10.4307 -17.4105 -1.6014 -0.0000 0.0000 -1.2277 9.6651 -4.5220 -0.7693 -7.1250 0.0000 -0.0000 -12.7154 25.3702 6.1864 0.0000 -0.0000 0.0000 87.7036 3.3703 26.3530 -15.1385 24.3387 -3.2828 0.0000 0.0000 1.5293 -11.7247 -6.9436 1.4372 7.1250 -0.0000 -0.0000 12.6923 -36.8030 2.6108
4.0129 17.1780 2.2088 -10.8386 -2.6682 1.4712 0.0000 0.0000 0.0000 -5.0789 2.1998 -10.8770 3.9871 12.1433 36.2407 2.2376 3.1342 -29.5203 0.3729 -3.9221 -10.8577 0.0000 0.0000 0.0000 29.9969 8.9705 -16.1188 -3.8115 -11.9053 35.3977 -1.0308 3.5623 -18.3277 -0.0017 -0.2647 0.7272 11.0207 -2.9201 -0.0923 1.1954 -4.2762 4.9471 -5.0422 -1.7072 4.5661 -13.4255 -14.4001 1.0685 23.6735 -20.3217 -0.1625 8.2334 -10.1573 3.7280 -0.0000 0.0000 0.0000 -82.8515 -6.0548 17.6804 10.4861 -17.4963 -1.6180 -0.0000 0.0000 -1.3014 9.6694 -4.5695 -0.7777 -7.1250 0.0000 -0.0000 -12.7077 25.3232 6.1968 -0.0000 0.0000 0.0000 87.6654 3.4547 26.5901 -15.2321 24.4684 -3.3215 0.0000 0.0000 1.4113 -11.7535 -6.9199 1.4360 7.1250 -0.0000 -0.0000 12.6640 -36.7811 2.6117
3.9837 17.1779 2.2214 -10.8064 -2.5049 1.4846 0.0000 0.0000 0.0000 -4.9645 2.2613 -10.9842 4.0045 12.1664 36.3233 2.2236 2.9652 -29.3597 0.3878 -3.9988 -11.0732 0.0000 0.0000 0.0000 30.0656 8.8576 -16.1356 -3.8129 -11.9071 35.4042 -1.0405 3.5855 -18.4142 -0.0028 -0.3417 0.9390 11.0887 -2.9154 -0.1124 1.2068 -4.2734 4.9287 -5.0682 -1.7043 4.5557 -13.4321 -14.4196 1.1084 23.6875 -20.3429 -0.2155 8.2400 -10.1721 3.7123 -0.0000 0.0000 0.0000 -82.8695 -6.0626 17.6664 10.5373 -17.5755 -1.6334 -0.0000 0.0000 -1.3737 9.6721 -4.6266 -0.7876 -7.1250 0.0000 -0.0000 -12.7002 25.2667 6.2101 -0.0000 0.0000 0.0000 87.6257 3.5399 26.8271 -15.3231 24.5942 -3.3593 0.0000 0.0000 1.2995 -11.7759 -6.9042 1.4355 7.1250 -0.0000 -0.0000 12.6425 -36.7668 2.6116
3.9549 17.1780 2.2335 -10.7704 -2.3439 1.5016 0.0000 0.0000 0.0000 -4.8544 2.3272 -11.1008 4.0224 12.1902 36.4082 2.2089 2.7921 -29.1938 0.4023 -4.0723 -11.2803 0.0000 0.0000 0.0000 30.1287 8.7486 -16.1584 -3.8142 -11.9089 35.4106 -1.0498 3.6016 -18.4972 -0.0041 -0.4111 1.1297 11.1526 -2.9085 -0.1340 1.2168 -4.2676 4.9105 -5.0935 -1.7000 4.5470 -13.4400 -14.4417 1.1463 23.7010 -20.3681 -0.2650 8.2458 -10.1886 3.6988 -0.0000 0.0000 0.0000 -82.8837 -6.0799 17.6608 10.5852 -17.6497 -1.6480 -0.0000 0.0000 -1.4443 9.6752 -4.6910 -0.7988 -7.1250 0.0000 -0.0000 -12.6918 25.2029 6.2252 -0.0000 0.0000 0.0000 87.5840 3.6260 27.0638 -15.4109 24.7154 -3.3959 0.0000 0.0000 1.1951 -11.7894 -6.9037 1.4371 7.1250 -0.0000 -0.0000 12.6312 -36.7672 2.6091
3.9265 17.1782 2.2451 -10.7315 -2.1846 1.5219 0.0000 0.0000 0.0000 -4.7475 2.3965 -11.2256 4.0408 12.2145 36.4949 2.1938 2.6145 -29.0238 0.4162 -4.1410 -11.4736 0.0000 0.0000 0.0000 30.1872 8.6448 -16.1860 -3.8154 -11.9106 35.4166 -1.0586 3.6086 -18.5765 -0.0054 -0.4741 1.3026 11.2129 -2.8999 -0.1570 1.2258 -4.2598 4.8926 -5.1179 -1.6947 4.5398 -13.4493 -14.4660 1.1827 23.7136 -20.3967 -0.3111 8.2509 -10.2064 3.6872 0.0000 -0.0000 0.0000 -82.8948 -6.1059 17.6627 10.6307 -17.7199 -1.6618 -0.0000 0.0000 -1.5116 9.6790 -4.7586 -0.8106 -7.1250 0.0000 -0.0000 -12.6826 25.1359 6.2407 0.0000 -0.0000 0.0000 87.5395 3.7132 27.3007 -15.4949 24.8310 -3.4311 0.0000 0.0000 1.0983 -11.7932 -6.9213 1.4413 7.1250 -0.0000 -0.0000 12.6314 -36.7850 2.6035
